<?xml version="1.0"?>
<svg width="20" height="20" xmlns="http://www.w3.org/2000/svg" xmlns:svg="http://www.w3.org/2000/svg" enable-background="new 0 0 20 20">
 <g class="layer">
  <title>Layer 1</title>
  <rect fill="none" height="20" id="svg_1" width="29.9" x="-41.4" y="-12.3"/>
  <g id="svg_2" transform="matrix(1 0 0 1 0 0)">
   <path d="m15.5,3l-11,0c-0.83,0 -1.5,0.67 -1.5,1.5l0,11c0,0.83 0.67,1.5 1.5,1.5l11,0c0.83,0 1.5,-0.67 1.5,-1.5l0,-11c0,-0.83 -0.67,-1.5 -1.5,-1.5zm-8.5,12.5l-2.5,0l0,-11l1.5,0l0,7c0,0.28 0.22,0.5 0.5,0.5l0.5,0l0,3.5zm5,0l-4,0l0,-3.5l0.5,0c0.28,0 0.5,-0.22 0.5,-0.5l0,-7l2,0l0,7c0,0.28 0.22,0.5 0.5,0.5l0.5,0l0,3.5zm3.5,0l-2.5,0l0,-3.5l0.5,0c0.28,0 0.5,-0.22 0.5,-0.5l0,-7l1.5,0l0,11z" id="svg_3"/>
  </g>
  <rect fill="none" height="5.4" id="svg_5" width="6.6" x="18.7" y="0.7"/>
  <text fill="#000000" font-family="Serif" font-size="17" id="svg_6" stroke-width="0" text-anchor="middle" x="53" xml:space="preserve" y="16">Concerna</text>
 </g>
</svg>